<?xml version="1.0" standalone="no"?>
<!DOCTYPE svg PUBLIC "-//W3C//DTD SVG 20010904//EN"
 "http://www.w3.org/TR/2001/REC-SVG-20010904/DTD/svg10.dtd">
<svg version="1.0" xmlns="http://www.w3.org/2000/svg"
 width="920.000000pt" height="920.000000pt" viewBox="0 0 920.000000 920.000000"
 preserveAspectRatio="xMidYMid meet">
<metadata>
Created by potrace 1.16, written by Peter Selinger 2001-2019
</metadata>
<g transform="translate(0.000000,920.000000) scale(0.100000,-0.100000)"
fill="#000000" stroke="none">
<path d="M4655 8992 c-39 -13 -73 -44 -90 -80 -30 -65 -92 -138 -167 -199 -90
-73 -165 -126 -209 -149 -19 -9 -36 -20 -39 -23 -5 -7 -136 -71 -240 -119
-139 -64 -237 -112 -290 -142 -80 -47 -211 -152 -257 -207 -159 -190 -195
-273 -195 -448 0 -69 5 -133 15 -166 8 -30 18 -67 21 -84 5 -27 4 -27 -16 10
-41 77 -97 142 -165 192 -81 60 -115 78 -205 109 -89 30 -265 32 -363 4 -36
-10 -69 -19 -73 -19 -37 -4 -176 -64 -390 -170 -142 -70 -279 -136 -307 -146
-27 -10 -54 -22 -60 -26 -5 -4 -56 -16 -112 -28 -120 -25 -307 -28 -396 -7
-107 25 -157 -9 -108 -75 12 -16 29 -57 38 -91 22 -81 22 -333 1 -503 -9 -66
-16 -131 -16 -145 0 -14 -8 -81 -16 -150 -49 -397 -48 -674 4 -845 24 -79 57
-135 115 -196 44 -46 144 -104 197 -114 38 -8 93 -27 103 -37 7 -7 3 -8 -10
-5 -18 5 -68 12 -158 21 -48 6 -186 -23 -241 -49 -129 -63 -238 -185 -330
-372 -31 -62 -56 -118 -56 -126 0 -7 -4 -17 -9 -22 -10 -11 -81 -227 -106
-325 -9 -36 -23 -87 -30 -115 -8 -27 -16 -61 -19 -75 -12 -66 -60 -231 -83
-289 -58 -146 -151 -265 -245 -316 -29 -15 -68 -43 -86 -62 l-33 -33 28 -11
c318 -121 501 -260 819 -624 141 -162 242 -261 335 -333 78 -60 235 -138 304
-152 108 -22 159 -29 179 -26 140 26 231 65 316 134 l45 37 -30 -37 c-16 -20
-51 -61 -77 -90 -91 -105 -176 -368 -177 -550 -2 -226 98 -388 374 -609 44
-35 128 -112 186 -171 94 -95 112 -119 157 -210 28 -57 53 -121 56 -143 4 -22
11 -67 17 -100 6 -33 8 -88 5 -123 -6 -60 7 -142 22 -142 4 0 30 20 57 44 64
55 148 102 216 121 101 28 334 50 619 60 69 2 166 9 215 15 50 5 114 12 143
14 128 10 346 68 446 118 178 89 297 252 297 408 0 30 4 73 8 95 l7 40 9 -60
c5 -33 10 -67 11 -75 2 -22 41 -145 52 -167 5 -10 15 -29 21 -43 44 -95 173
-212 281 -255 117 -46 187 -56 425 -60 489 -10 603 -15 692 -30 189 -32 300
-83 446 -205 l82 -69 6 112 c4 62 12 129 19 151 6 21 13 47 15 58 16 79 126
318 170 368 12 14 44 54 71 90 26 36 53 70 60 75 6 6 42 50 80 98 38 49 80
102 93 118 28 34 209 383 215 413 3 12 11 39 19 61 8 22 20 84 27 137 11 85
10 106 -4 172 -22 95 -72 173 -167 258 -38 33 -67 63 -65 65 2 2 29 -14 60
-36 61 -42 183 -87 268 -99 183 -24 330 11 472 112 68 49 244 230 299 307 40
58 148 202 156 209 3 3 19 23 36 45 72 98 239 252 358 330 64 41 173 85 213
85 32 0 122 29 130 42 4 6 -43 60 -104 122 -128 130 -182 206 -262 371 -89
182 -153 395 -205 680 -17 91 -65 219 -117 308 -15 26 -28 51 -28 55 0 4 -24
30 -52 58 -168 161 -268 206 -410 185 -159 -24 -208 -28 -208 -17 0 7 34 19
76 29 116 27 173 58 261 146 73 73 95 105 147 224 29 64 30 77 31 262 0 198
-6 292 -28 405 -8 41 -22 120 -32 175 -9 55 -22 123 -27 150 -17 87 -21 285
-9 375 7 47 16 110 20 140 9 63 24 126 52 219 10 36 16 67 14 69 -3 3 -45 -1
-95 -7 -196 -27 -325 -16 -510 46 -71 24 -420 159 -485 188 -51 22 -180 69
-270 98 -85 27 -129 37 -241 52 -236 34 -399 -27 -522 -193 -29 -38 -52 -72
-52 -76 0 -4 -16 -30 -35 -59 -19 -28 -35 -50 -35 -47 0 3 7 30 16 60 48 175
56 213 60 293 4 94 -15 175 -59 246 -27 44 -154 171 -171 171 -7 0 -33 11 -57
25 -24 14 -51 28 -59 31 -43 19 -318 196 -481 310 -307 215 -569 466 -569 546
0 19 -10 21 -45 10z m228 -2430 l108 -113 -92 -102 c-51 -56 -132 -143 -180
-193 l-87 -91 -187 187 -187 188 18 31 c10 16 94 106 187 198 l169 167 71 -79
c40 -44 121 -131 180 -193z m564 -325 c20 -31 206 -323 230 -362 36 -60 93
-165 93 -173 0 -6 -26 -36 -57 -68 -62 -64 -208 -145 -313 -176 -164 -48 -190
-52 -400 -52 -180 0 -215 3 -284 22 -113 31 -143 43 -209 79 -33 18 -61 33
-63 33 -16 0 -148 110 -236 197 -131 129 -231 273 -298 426 -12 27 -20 53 -18
58 2 5 34 -18 71 -51 268 -237 479 -330 757 -330 52 0 121 6 153 14 31 7 57
12 57 10 0 -7 134 48 182 75 84 48 187 149 248 244 30 48 57 87 60 86 3 0 15
-14 27 -32z m-1949 -328 c24 -5 61 -12 84 -14 22 -3 48 -10 58 -15 9 -5 30
-11 46 -14 15 -3 75 -28 131 -57 88 -43 117 -64 196 -142 54 -54 110 -121 135
-163 44 -74 99 -211 108 -272 3 -20 10 -55 15 -77 22 -100 -1 -326 -45 -452
-16 -44 -66 -139 -98 -188 -30 -45 -116 -123 -176 -162 -29 -19 -50 -39 -46
-45 7 -11 82 -47 112 -53 83 -18 223 -87 290 -144 98 -82 120 -92 202 -90 122
4 239 58 349 163 103 99 162 203 266 466 52 133 150 348 164 360 3 3 23 30 43
61 119 182 453 312 763 296 159 -8 282 -37 433 -103 142 -62 327 -218 424
-356 88 -126 173 -325 212 -493 24 -105 46 -305 46 -414 0 -101 -32 -382 -51
-454 -6 -23 -13 -53 -15 -67 -3 -14 -11 -45 -19 -70 -95 -298 -175 -460 -311
-630 -106 -132 -195 -205 -344 -282 -120 -61 -140 -69 -230 -97 -149 -46 -210
-54 -375 -54 -199 1 -290 20 -449 97 -267 129 -422 332 -481 632 -9 45 -15
101 -13 125 l3 44 34 -60 c56 -96 180 -212 286 -267 264 -136 619 -164 930
-73 80 23 302 125 315 144 3 4 25 21 50 38 76 52 134 108 200 194 320 419 320
985 2 1330 -145 156 -303 246 -501 284 -77 15 -99 16 -153 5 -172 -33 -260
-113 -437 -398 -28 -45 -51 -85 -51 -89 0 -3 -33 -56 -74 -117 -79 -119 -145
-198 -216 -261 -25 -22 -47 -43 -50 -46 -22 -24 -160 -109 -223 -136 -73 -32
-83 -34 -190 -33 -63 1 -138 8 -172 17 -114 29 -133 31 -135 18 -2 -16 10
-151 26 -285 19 -170 18 -276 -6 -401 -36 -196 -94 -309 -230 -453 -127 -134
-277 -228 -449 -283 -81 -25 -97 -27 -271 -27 -191 1 -246 9 -390 60 -316 112
-605 318 -811 579 -52 65 -157 225 -190 287 -134 254 -221 478 -234 603 l-6
60 21 -40 c32 -58 93 -159 100 -165 3 -3 23 -30 45 -60 103 -143 324 -353 486
-462 224 -151 377 -220 619 -278 107 -26 128 -27 300 -25 152 2 197 6 251 23
190 58 308 153 385 309 38 78 41 87 50 205 18 214 -100 421 -294 514 -88 42
-123 49 -227 48 -95 0 -137 -6 -230 -34 -86 -25 -85 -25 -85 0 0 10 -4 29 -9
42 -5 13 -19 66 -30 118 -12 52 -30 129 -40 170 -24 95 -48 196 -56 235 l-6
30 103 -6 c105 -6 241 2 335 20 65 13 180 70 214 108 153 165 124 398 -61 493
-167 85 -419 96 -595 27 -157 -63 -332 -206 -465 -381 -36 -47 -68 -86 -72
-86 -4 0 -18 15 -30 34 -120 177 -282 426 -347 530 l-43 68 24 25 c13 14 57
51 98 81 41 31 77 59 80 62 5 7 14 13 236 161 130 86 250 159 269 164 6 1 23
7 40 14 29 12 145 36 215 44 46 6 184 -2 238 -14z"/>
</g>
</svg>
