<?xml version="1.0" standalone="no"?>
<!DOCTYPE svg PUBLIC "-//W3C//DTD SVG 20010904//EN"
 "http://www.w3.org/TR/2001/REC-SVG-20010904/DTD/svg10.dtd">
<svg version="1.0" xmlns="http://www.w3.org/2000/svg"
 width="900.000000pt" height="599.000000pt" viewBox="0 0 900.000000 599.000000"
 preserveAspectRatio="xMidYMid meet">
<metadata>
Created by potrace 1.16, written by Peter Selinger 2001-2019
</metadata>
<g transform="translate(0.000000,599.000000) scale(0.100000,-0.100000)"
fill="#000000" stroke="none">
<path d="M4548 5864 c-62 -59 -154 -148 -205 -197 l-92 -89 162 -157 c89 -87
181 -175 205 -195 l42 -39 53 49 c28 26 120 114 203 195 l151 148 -194 193
c-106 106 -198 194 -203 196 -5 2 -60 -45 -122 -104z"/>
<path d="M3640 5288 c-72 -58 -99 -85 -95 -96 12 -32 121 -175 206 -271 299
-337 700 -549 1089 -576 278 -20 600 103 905 345 87 69 215 189 215 201 0 4
-118 103 -262 220 -145 117 -271 219 -280 227 -16 13 -22 10 -65 -39 -167
-191 -354 -321 -543 -381 -65 -20 -95 -23 -220 -22 -131 0 -153 3 -230 28
-203 67 -416 211 -560 378 l-58 67 -102 -81z"/>
<path d="M2930 4584 c-128 -20 -316 -67 -457 -114 -63 -22 -117 -40 -118 -42
-2 -2 56 -148 129 -325 116 -282 134 -320 149 -312 54 31 310 126 417 155 167
46 282 64 416 64 225 0 380 -69 473 -212 192 -293 37 -620 -415 -877 -95 -54
-279 -132 -358 -152 -25 -6 -46 -13 -46 -15 0 -9 254 -640 260 -647 13 -15
271 157 422 280 86 70 200 190 230 242 13 23 28 41 35 41 22 0 143 -143 224
-264 141 -210 259 -476 310 -696 29 -125 36 -342 15 -449 -48 -237 -172 -417
-383 -558 -288 -193 -622 -214 -969 -62 -682 299 -1279 1229 -1349 2102 -4 51
-12 90 -19 92 -6 2 -61 6 -123 9 l-111 5 4 -57 c56 -673 275 -1334 606 -1827
187 -278 422 -502 699 -666 448 -265 988 -354 1379 -227 261 85 522 321 661
598 95 189 124 323 124 570 0 171 -2 193 -29 295 -15 61 -44 151 -63 200 -68
176 -236 499 -346 666 l-17 26 107 66 c210 126 289 156 423 157 128 0 209 -63
251 -199 21 -67 22 -84 49 -641 22 -459 84 -684 230 -831 101 -102 208 -133
465 -133 291 -1 507 86 697 280 134 137 179 214 247 427 110 344 178 780 188
1202 14 635 -114 1068 -391 1322 -163 150 -438 228 -676 194 -391 -58 -674
-278 -785 -611 -26 -79 -55 -230 -55 -285 l0 -33 -58 5 c-74 7 -239 -12 -334
-38 -234 -63 -452 -187 -651 -369 l-67 -62 -56 42 c-30 24 -57 46 -59 50 -3 5
2 41 10 82 42 210 57 472 34 633 -25 185 -74 310 -178 455 -160 224 -354 363
-596 426 -86 23 -125 27 -275 30 -121 2 -204 -1 -270 -12z m3470 -896 c25 -5
88 -31 140 -56 82 -40 109 -59 196 -147 70 -69 116 -124 148 -180 173 -298
219 -660 134 -1055 -116 -542 -448 -876 -818 -822 -93 13 -153 40 -215 94 -55
49 -87 102 -120 199 -43 126 -55 264 -55 637 0 574 -26 767 -118 864 -13 15
-38 30 -53 33 -16 4 -29 9 -29 12 0 16 104 148 166 210 119 119 260 200 390
223 54 10 165 4 234 -12z"/>
</g>
</svg>
